<svg id="Layer_1" data-name="Layer 1" xmlns="http://www.w3.org/2000/svg" viewBox="0 0 360 360"><defs><style>.cls-1{fill:#fff;}</style></defs><path class="cls-1" d="M1140,720H780V360h360ZM1033,544h0c0-30.5-.12-61,.11-91.49,0-5.53-1.72-9.79-4.73-14.26a110.3,110.3,0,0,1-9.92-18.29c-1.89-4.44-1.24-4.74-6.22-4.74H906.74c-.83,0-1.81-.28-2.46.07-1.16.62-2.84,1.48-3,2.48-1.56,8.35-6.46,14.88-11.26,21.47a18.65,18.65,0,0,0-4,11.5q.16,94,.09,188c0,5,0,5,4.84,5h137c5.06,0,5.07,0,5.07-5.29Z" transform="translate(-780 -360)"/><path d="M1033,544v94.49c0,5.26,0,5.29-5.07,5.29H891c-4.81,0-4.84,0-4.84-5q0-94-.09-188a18.65,18.65,0,0,1,4-11.5c4.8-6.59,9.7-13.12,11.26-21.47.19-1,1.87-1.86,3-2.48.65-.35,1.63-.07,2.46-.07h105.49c5,0,4.33.3,6.22,4.74a110.3,110.3,0,0,0,9.92,18.29c3,4.47,4.77,8.73,4.73,14.26-.23,30.49-.11,61-.11,91.49Zm-94.35,62.57c2.54-4.4,5.08-8.56,7.29-12.89.33-.65-.64-2.31-1.41-3.12-1.82-1.89-4.23-3.29-5.81-5.34-6.49-8.44-12.79-17-19.11-25.6-2-2.74-1.46-5.5,1.39-7.62,2-1.47,4.13-.71,6.11,2.3a17,17,0,0,1,1.45,3.15c.87,2.22.75,5.89,3.87,5.4,1.66-.25,2.92-3.51,4.21-5.51a5.67,5.67,0,0,0,.48-2.41c.6-6-4.38-15.16-10-17.52-1.64-.68-4.17-.18-5.9.62-1.52.7-2.7,2.45-3.66,4-3.94,6.16-7.72,12.41-11.57,18.62-1.2,1.93-.81,3.2,1.13,4.53a22.4,22.4,0,0,1,5,4.75q8.67,11.26,17.06,22.74C932.34,597,935.24,601.51,938.67,606.57Zm14.66-82.69c.11-9.42-3.78-15.06-8.1-20.38-5.34-6.55-12.54-6.42-17.6.39a134.25,134.25,0,0,0-8.78,13.89,4.83,4.83,0,0,0,.29,4.3c6.14,8.22,12.53,16.26,18.79,24.39,1.82,2.37,3.42,2.35,4.87-.23,2.35-4.2,4.93-8.28,7-12.63A93.07,93.07,0,0,0,953.33,523.88Zm32.57-.22c-.28-7.66-2.11-12.82-6.72-16.71s-9-2.86-11.79,2.31c-2,3.77-4.1,7.54-6.48,11.08-1.49,2.21-1.51,3.73.39,5.62a75.44,75.44,0,0,1,6.54,7.42c4.23,5.53,8.29,11.19,12.44,16.78,1,1.31,2.22,3.24,3.82,1.3a18.34,18.34,0,0,0,3.54-7c.24-.94-1.83-2.46-2.85-3.71-.42-.51-.85-1-1.3-1.51-2-2.2-2.23-4.23-.63-7.07C984.59,529.11,985.29,525.48,985.9,523.66ZM972,547.38c.22-7.19-4.42-11.36-8.45-15.72s-6.76-4.06-9.87.82a147.08,147.08,0,0,0-7.3,12.95,4.64,4.64,0,0,0,.34,4c6.28,8.73,12.75,17.33,19.17,26,1.26,1.69,2.63,1.82,4.1.19,3.79-4.18,3.79-6.3,0-10.22s-3.78-4.49-1.13-9.39C970.25,553.32,971,550.26,972,547.38Zm-17.65,18.91a68.84,68.84,0,0,1-2.77,7.2c-.85,1.64-2.29,3-4.46,1.7-2.32-1.42-1.8-3.25-.62-5.12,1.41-2.23,3-4.37,4.21-6.71,1.49-2.86.61-5.75-2.1-7.88-2-1.6-4.16-2.85-6.72-1-9.34,6.81-8.92,23.43.76,29.67,2.59,1.66,5.78,2.42,7.79.08a52,52,0,0,0,7.46-11.61C959.1,570.06,958.72,566.92,954.33,566.29Zm23.56-72.4c-.1,8.85,3.53,13.88,8.29,18.27,2.25,2.08,4.69,2.17,7.16.11,4.4-3.69,6.61-8.7,8.08-14,.26-.94-1.44-2.42-2.24-3.66-1.07.73-2.47,1.24-3.14,2.23-.89,1.33-.78,3.63-1.88,4.44-1.34,1-3.5.83-5.3,1.18.1-1.51-.18-3.19.4-4.49.94-2.09,2.54-3.88,3.69-5.9,2.08-3.65,1.48-6.65-1.57-8.68-3.71-2.46-6.47-2.18-9.23,1.05A17.63,17.63,0,0,0,977.89,493.89Zm24.83,1.44c7-5.69,7.13-7.35,1.83-13.28-1-1.11-2-2.23-3-3.33-2.8-3-4.06-6.37-2.25-10.42.4-.9,1-2.07.72-2.82a27.5,27.5,0,0,0-2.6-4.37,16.36,16.36,0,0,0-3,2.89c-1.57,2.5-2.79,5.22-4.3,7.77-2.41,4.08-2.42,4,1.22,7.46a21.92,21.92,0,0,1,2.73,3.52C996.94,486.92,999.81,491.12,1002.72,495.33Zm-50.9-9.95a30.06,30.06,0,0,0-1.75,2.46c-1.32,2.27-2.3,4.8-3.89,6.84-2.18,2.78-1.86,4.88.36,7.47,3,3.52,5.61,7.41,8.44,11.1,1,1.37,2.25,2.62,3.39,3.92a55.35,55.35,0,0,0,3.87-4.25c1.9-2.52.67-4.39-1.19-6.52-4-4.59-9.63-8.71-5.55-16.33C956.5,488.2,953.91,485.12,951.82,485.38Z" transform="translate(-780 -360)"/><path class="cls-1" d="M938.67,606.57c-3.43-5.06-6.33-9.6-9.51-13.94q-8.37-11.49-17.06-22.74a22.4,22.4,0,0,0-5-4.75c-1.94-1.33-2.33-2.6-1.13-4.53,3.85-6.21,7.63-12.46,11.57-18.62,1-1.51,2.14-3.26,3.66-4,1.73-.8,4.26-1.3,5.9-.62,5.63,2.36,10.61,11.54,10,17.52a5.67,5.67,0,0,1-.48,2.41c-1.29,2-2.55,5.26-4.21,5.51-3.12.49-3-3.18-3.87-5.4a17,17,0,0,0-1.45-3.15c-2-3-4.13-3.77-6.11-2.3-2.85,2.12-3.42,4.88-1.39,7.62,6.32,8.57,12.62,17.16,19.11,25.6,1.58,2,4,3.45,5.81,5.34.77.81,1.74,2.47,1.41,3.12C943.75,598,941.21,602.17,938.67,606.57Z" transform="translate(-780 -360)"/><path class="cls-1" d="M953.33,523.88a93.07,93.07,0,0,1-3.56,9.73c-2,4.35-4.62,8.43-7,12.63-1.45,2.58-3,2.6-4.87.23-6.26-8.13-12.65-16.17-18.79-24.39a4.83,4.83,0,0,1-.29-4.3,134.25,134.25,0,0,1,8.78-13.89c5.06-6.81,12.26-6.94,17.6-.39C949.55,508.82,953.44,514.46,953.33,523.88Zm-8.06,2.8c-.07-6.62-3.74-13.34-9-16.16a5.33,5.33,0,0,0-4.37,0c-3.65,2-4,4.68-1.42,8.24,2.83,3.9,5.68,7.8,8.71,11.54.9,1.11,2.44,1.71,3.68,2.54.74-1.38,1.58-2.71,2.18-4.13A6,6,0,0,0,945.27,526.68Z" transform="translate(-780 -360)"/><path class="cls-1" d="M985.9,523.66c-.61,1.82-1.31,5.45-3,8.51-1.6,2.84-1.38,4.87.63,7.07.45.49.88,1,1.3,1.51,1,1.25,3.09,2.77,2.85,3.71a18.34,18.34,0,0,1-3.54,7c-1.6,1.94-2.85,0-3.82-1.3-4.15-5.59-8.21-11.25-12.44-16.78A75.44,75.44,0,0,0,961.3,526c-1.9-1.89-1.88-3.41-.39-5.62,2.38-3.54,4.46-7.31,6.48-11.08,2.78-5.17,7.26-6.13,11.79-2.31S985.62,516,985.9,523.66ZM980,525.82c-1.7-2.86-3.31-5.82-5.19-8.61-.88-1.31-2.39-3-4-1.21a4.85,4.85,0,0,0-.83,4.27,47.48,47.48,0,0,0,5.08,7.86c.59.79,1.84,1.09,2.79,1.61Z" transform="translate(-780 -360)"/><path class="cls-1" d="M972,547.38c-1,2.88-1.73,5.94-3.17,8.6-2.65,4.9-2.76,5.4,1.13,9.39s3.82,6,0,10.22c-1.47,1.63-2.84,1.5-4.1-.19-6.42-8.63-12.89-17.23-19.17-26a4.64,4.64,0,0,1-.34-4,147.08,147.08,0,0,1,7.3-12.95c3.11-4.88,5.9-5.11,9.87-.82S972.2,540.19,972,547.38Zm-8.72,8.09c2.54-5.46.06-13.19-4.45-15a3.92,3.92,0,0,0-3.22.26c-.73.51-1.5,2.24-1.17,2.82C956.77,547.7,958.69,552.29,963.26,555.47Z" transform="translate(-780 -360)"/><path class="cls-1" d="M954.33,566.29c4.39.63,4.77,3.77,3.55,6.36a52,52,0,0,1-7.46,11.61c-2,2.34-5.2,1.58-7.79-.08-9.68-6.24-10.1-22.86-.76-29.67,2.56-1.88,4.68-.63,6.72,1,2.71,2.13,3.59,5,2.1,7.88-1.21,2.34-2.8,4.48-4.21,6.71-1.18,1.87-1.7,3.7.62,5.12,2.17,1.33,3.61-.06,4.46-1.7A68.84,68.84,0,0,0,954.33,566.29Zm-14,1.93c4.13-1.42,4.22-4.72,5.24-7.69C941.1,560.8,940.15,562.1,940.38,568.22Z" transform="translate(-780 -360)"/><path class="cls-1" d="M977.89,493.89a17.63,17.63,0,0,1,4.26-9.45c2.76-3.23,5.52-3.51,9.23-1.05,3,2,3.65,5,1.57,8.68-1.15,2-2.75,3.81-3.69,5.9-.58,1.3-.3,3-.4,4.49,1.8-.35,4-.2,5.3-1.18,1.1-.81,1-3.11,1.88-4.44.67-1,2.07-1.5,3.14-2.23.8,1.24,2.5,2.72,2.24,3.66-1.47,5.3-3.68,10.31-8.08,14-2.47,2.06-4.91,2-7.16-.11C981.42,507.77,977.79,502.74,977.89,493.89Zm11-5.2c-3.78-.11-6,1.86-5.92,4.92a6.82,6.82,0,0,0,.88,2.09c.81-.38,2-.55,2.35-1.18A57.38,57.38,0,0,0,988.89,488.69Z" transform="translate(-780 -360)"/><path class="cls-1" d="M1002.72,495.33c-2.91-4.21-5.78-8.41-8.69-12.58a21.92,21.92,0,0,0-2.73-3.52c-3.64-3.45-3.63-3.38-1.22-7.46,1.51-2.55,2.73-5.27,4.3-7.77a16.36,16.36,0,0,1,3-2.89,27.5,27.5,0,0,1,2.6,4.37c.28.75-.32,1.92-.72,2.82-1.81,4.05-.55,7.39,2.25,10.42,1,1.1,2,2.22,3,3.33C1009.85,488,1009.68,489.64,1002.72,495.33Z" transform="translate(-780 -360)"/><path class="cls-1" d="M951.82,485.38c2.09-.26,4.68,2.82,3.68,4.69-4.08,7.62,1.53,11.74,5.55,16.33,1.86,2.13,3.09,4,1.19,6.52a55.35,55.35,0,0,1-3.87,4.25c-1.14-1.3-2.34-2.55-3.39-3.92-2.83-3.69-5.42-7.58-8.44-11.1-2.22-2.59-2.54-4.69-.36-7.47,1.59-2,2.57-4.57,3.89-6.84A30.06,30.06,0,0,1,951.82,485.38Z" transform="translate(-780 -360)"/><path d="M945.27,526.68a6,6,0,0,1-.23,2c-.6,1.42-1.44,2.75-2.18,4.13-1.24-.83-2.78-1.43-3.68-2.54-3-3.74-5.88-7.64-8.71-11.54-2.59-3.56-2.23-6.2,1.42-8.24a5.33,5.33,0,0,1,4.37,0C941.53,513.34,945.2,520.06,945.27,526.68Z" transform="translate(-780 -360)"/><path d="M980,525.82l-2.13,3.92c-1-.52-2.2-.82-2.79-1.61a47.48,47.48,0,0,1-5.08-7.86,4.85,4.85,0,0,1,.83-4.27c1.59-1.76,3.1-.1,4,1.21C976.66,520,978.27,523,980,525.82Z" transform="translate(-780 -360)"/><path d="M963.26,555.47c-4.57-3.18-6.49-7.77-8.84-12-.33-.58.44-2.31,1.17-2.82a3.92,3.92,0,0,1,3.22-.26C963.32,542.28,965.8,550,963.26,555.47Z" transform="translate(-780 -360)"/><path d="M940.38,568.22c-.23-6.12.72-7.42,5.24-7.69C944.6,563.5,944.51,566.8,940.38,568.22Z" transform="translate(-780 -360)"/><path d="M988.89,488.69a57.38,57.38,0,0,1-2.69,5.83c-.37.63-1.54.8-2.35,1.18a6.82,6.82,0,0,1-.88-2.09C982.87,490.55,985.11,488.58,988.89,488.69Z" transform="translate(-780 -360)"/></svg>